<?xml version="1.0" standalone="no"?>
<!DOCTYPE svg PUBLIC "-//W3C//DTD SVG 20010904//EN"
 "http://www.w3.org/TR/2001/REC-SVG-20010904/DTD/svg10.dtd">
<svg version="1.0" xmlns="http://www.w3.org/2000/svg"
 width="512.000000pt" height="512.000000pt" viewBox="0 0 512.000000 512.000000"
 preserveAspectRatio="xMidYMid meet">

<g transform="translate(0.000000,512.000000) scale(0.100000,-0.100000)"
fill="#000000" stroke="none">
<path d="M811 4773 c-28 -87 -95 -297 -150 -468 -55 -170 -99 -310 -98 -311 1
0 198 -85 437 -189 239 -103 439 -191 443 -195 4 -4 -60 -270 -143 -592 -82
-323 -150 -590 -150 -595 0 -4 153 286 341 646 187 359 339 657 337 662 -2 5
-176 95 -388 200 -211 104 -386 192 -388 193 -2 2 114 182 257 400 144 219
261 399 261 402 0 2 -159 4 -354 4 l-355 0 -50 -157z"/>
<path d="M2453 4920 c-226 -41 -405 -209 -463 -436 -35 -137 -23 -256 41 -392
76 -164 243 -291 423 -323 192 -33 394 36 526 178 107 117 154 237 154 398 0
164 -54 296 -168 411 -69 68 -142 113 -235 143 -75 25 -203 34 -278 21z"/>
<path d="M3560 4926 c0 -4 527 -911 711 -1222 l47 -82 -429 -107 c-367 -92
-429 -110 -424 -124 22 -58 779 -1800 781 -1798 2 2 -78 360 -176 797 -99 436
-179 795 -177 796 1 2 185 44 407 94 223 51 408 95 412 98 5 6 -287 783 -548
1460 l-36 92 -284 0 c-156 0 -284 -2 -284 -4z"/>
<path d="M2360 3521 l0 -71 193 2 192 3 3 68 3 69 -68 -9 c-86 -10 -170 -10
-255 0 l-68 9 0 -71z"/>
<path d="M1995 3245 c-62 -22 -95 -65 -95 -125 0 -41 5 -55 30 -84 54 -61 51
-61 645 -61 504 0 543 1 568 18 88 57 90 195 4 247 -31 19 -54 20 -572 20
-439 -1 -547 -4 -580 -15z"/>
<path d="M2367 2784 c-4 -4 -7 -34 -7 -66 l0 -58 195 0 196 0 -3 63 -3 62
-186 3 c-102 1 -188 -1 -192 -4z"/>
<path d="M1593 2450 c-18 -10 -39 -33 -48 -49 -22 -43 -19 -117 5 -156 42 -67
4 -65 975 -65 614 0 890 3 927 11 39 9 63 22 91 49 32 33 37 44 37 85 0 41 -5
52 -38 85 -21 21 -55 43 -77 49 -28 8 -314 11 -940 11 -875 0 -901 -1 -932
-20z"/>
<path d="M2360 1920 l0 -70 195 0 195 0 0 70 0 70 -195 0 -195 0 0 -70z"/>
<path d="M1240 1643 c-95 -48 -107 -166 -25 -243 l27 -25 1271 -3 c1111 -2
1278 0 1323 13 131 38 151 180 34 245 l-45 25 -1275 3 c-1200 2 -1277 1 -1310
-15z"/>
<path d="M2360 1105 l0 -75 195 0 195 0 0 75 0 75 -195 0 -195 0 0 -75z"/>
<path d="M883 820 c-47 -28 -66 -72 -61 -137 5 -63 40 -107 98 -124 23 -7 563
-9 1640 -7 l1605 3 40 21 c56 30 76 56 82 105 8 60 -17 102 -80 134 l-51 25
-1620 0 c-1590 0 -1622 0 -1653 -20z"/>
<path d="M2360 270 l0 -90 195 0 195 0 0 90 0 90 -195 0 -195 0 0 -90z"/>
</g>
</svg>
